<?xml version="1.0" encoding="UTF-8" standalone="no"?>
<!DOCTYPE svg PUBLIC "-//W3C//DTD SVG 1.1//EN" "http://www.w3.org/Graphics/SVG/1.1/DTD/svg11.dtd">
<svg version="1.1" xmlns="http://www.w3.org/2000/svg" xmlns:xlink="http://www.w3.org/1999/xlink" preserveAspectRatio="xMidYMid meet" viewBox="0 0 50 50" width="50" height="50"><defs><path d="M41.98 7.6C42.84 7.6 43.54 8.3 43.54 9.17C43.54 10.46 43.54 12.77 43.54 14.06C43.54 14.93 42.84 15.63 41.98 15.63C35.15 15.63 16.21 15.63 9.38 15.63C8.51 15.63 7.81 14.93 7.81 14.06C7.81 12.77 7.81 10.46 7.81 9.17C7.81 8.3 8.51 7.6 9.38 7.6C16.21 7.6 35.15 7.6 41.98 7.6Z" id="bfOeavZ40"></path><path d="M41.98 21.88C42.84 21.88 43.54 22.57 43.54 23.44C43.54 24.73 43.54 27.04 43.54 28.33C43.54 29.2 42.84 29.9 41.98 29.9C35.15 29.9 16.21 29.9 9.38 29.9C8.51 29.9 7.81 29.2 7.81 28.33C7.81 27.04 7.81 24.73 7.81 23.44C7.81 22.57 8.51 21.88 9.38 21.88C16.21 21.88 35.15 21.88 41.98 21.88Z" id="a1YW7XWRVl"></path><path d="M41.98 35.94C42.84 35.94 43.54 36.64 43.54 37.5C43.54 38.79 43.54 41.1 43.54 42.4C43.54 43.26 42.84 43.96 41.98 43.96C35.15 43.96 16.21 43.96 9.38 43.96C8.51 43.96 7.81 43.26 7.81 42.4C7.81 41.1 7.81 38.79 7.81 37.5C7.81 36.64 8.51 35.94 9.38 35.94C16.21 35.94 35.15 35.94 41.98 35.94Z" id="a2kpSH4L67"></path></defs><g><g><g><use xlink:href="#bfOeavZ40" opacity="1" fill="#CFDB42" fill-opacity="1"></use></g><g><use xlink:href="#a1YW7XWRVl" opacity="1" fill="#CFDB42" fill-opacity="1"></use></g><g><use xlink:href="#a2kpSH4L67" opacity="1" fill="#CFDB42" fill-opacity="1"></use></g></g></g></svg>
